<?xml version="1.0" standalone="no"?>
<!DOCTYPE svg PUBLIC "-//W3C//DTD SVG 20010904//EN"
 "http://www.w3.org/TR/2001/REC-SVG-20010904/DTD/svg10.dtd">
<svg version="1.0" xmlns="http://www.w3.org/2000/svg"
 width="512.000000pt" height="512.000000pt" viewBox="0 0 512.000000 512.000000"
 preserveAspectRatio="xMidYMid meet">
<metadata>
Created by potrace 1.11, written by Peter Selinger 2001-2013
</metadata>
<g transform="translate(0.000000,512.000000) scale(0.100000,-0.100000)"
fill="#000000" stroke="none">
<path d="M1849 4846 c-2 -2 -37 -7 -77 -10 -40 -4 -78 -9 -85 -11 -6 -2 -28
-6 -47 -9 -19 -3 -46 -8 -60 -11 -14 -3 -36 -8 -50 -11 -14 -3 -38 -9 -55 -14
-16 -6 -33 -10 -37 -10 -23 -1 -217 -78 -312 -124 -251 -122 -541 -353 -684
-544 -15 -21 -30 -39 -33 -42 -4 -3 -39 -54 -78 -114 -142 -216 -260 -505
-297 -731 -25 -152 -32 -248 -28 -420 2 -104 6 -203 8 -220 3 -16 8 -52 11
-80 28 -225 122 -534 229 -755 151 -312 383 -617 625 -820 30 -25 59 -50 65
-55 6 -6 47 -38 92 -71 295 -222 730 -409 1074 -464 36 -5 76 -12 90 -15 98
-20 496 -27 630 -11 319 37 616 125 885 262 345 175 636 417 870 720 41 55 79
104 83 109 30 39 131 214 181 312 163 327 250 659 267 1026 l6 117 -556 0
-556 0 -1 58 c-1 31 -2 71 -4 87 -6 66 -16 155 -21 177 -2 13 -7 37 -10 53
-53 298 -216 646 -413 885 -47 57 -211 223 -270 274 -66 56 -209 155 -297 205
-207 117 -491 216 -684 237 -25 3 -52 8 -60 11 -17 6 -395 15 -401 9z"/>
</g>
</svg>
